<svg id="logo" width="50" height="50" role="image" viewBox="0 0 100 100"  xmlns="http://www.w3.org/2000/svg">
<path d="M51.75 3.89711L89.0513 25.433C90.1342 26.0582 90.8013 27.2137 90.8013 28.4641V71.5359C90.8013 72.7863 90.1342 73.9418 89.0513 74.567L51.75 96.1029C50.6671 96.7281 49.3329 96.7281 48.25 96.1029L10.9487 74.567C9.86583 73.9418 9.19873 72.7863 9.19873 71.5359V28.4641C9.19873 27.2137 9.86583 26.0582 10.9487 25.433L48.25 3.89711C49.3329 3.2719 50.6671 3.2719 51.75 3.89711Z" stroke="currentColor" stroke-width="5"/>
<path d="M36.556 64.396C35.3827 64.396 34.4733 64.0733 33.828 63.428C33.212 62.7827 32.904 61.8733 32.904 60.7V36.28C32.904 35.0773 33.2413 34.168 33.916 33.552C34.5907 32.9067 35.544 32.584 36.776 32.584C37.8027 32.584 38.6093 32.7893 39.196 33.2C39.812 33.5813 40.3693 34.2267 40.868 35.136L50.328 52.12H48.788L58.204 35.136C58.732 34.2267 59.2893 33.5813 59.876 33.2C60.492 32.7893 61.3133 32.584 62.34 32.584C63.5133 32.584 64.408 32.9067 65.024 33.552C65.6693 34.168 65.992 35.0773 65.992 36.28V60.7C65.992 61.8733 65.684 62.7827 65.068 63.428C64.452 64.0733 63.5427 64.396 62.34 64.396C61.1667 64.396 60.2573 64.0733 59.612 63.428C58.996 62.7827 58.688 61.8733 58.688 60.7V45.564H59.612L52.528 57.884C52.1173 58.5293 51.6773 59.0133 51.208 59.336C50.768 59.6587 50.1667 59.82 49.404 59.82C48.6707 59.82 48.0693 59.6587 47.6 59.336C47.1307 59.0133 46.7053 58.5293 46.324 57.884L39.196 45.52H40.208V60.7C40.208 61.8733 39.9 62.7827 39.284 63.428C38.668 64.0733 37.7587 64.396 36.556 64.396Z" fill="currentColor"/>
</svg>
